<?xml version="1.0" encoding="UTF-8"?>
<svg id="Layer_1" xmlns="http://www.w3.org/2000/svg" version="1.1" xmlns:xlink="http://www.w3.org/1999/xlink" viewBox="0 0 43 40">
  <!-- Generator: Adobe Illustrator 29.3.0, SVG Export Plug-In . SVG Version: 2.1.0 Build 146)  -->
  <defs>
    <style>
      .st0 {
        fill: #fff;
      }

      .st1 {
        fill: none;
      }

      .st2 {
        fill: gray;
      }

      .st3 {
        clip-path: url(#clippath);
      }
    </style>
    <clipPath id="clippath">
      <rect class="st1" x="1" y="2" width="41.7" height="36"/>
    </clipPath>
  </defs>
  <path class="st2" d="M20,0h0c11,0,20,9,20,20h0c0,11-9,20-20,20h0C9,40,0,31,0,20h0C0,9,9,0,20,0Z"/>
  <g class="st3">
    <g>
      <path class="st0" d="M14.1,29.7c-.3-.2-.7-.4-1-.6-.3.3-.6.5-.9.8.3.2.6.5,1,.7,1.2.7,2.5,1.3,3.9,1.6.4,0,.8.2,1.2.2.3-.4.5-.7.8-1.1-.4,0-.9,0-1.3-.2-1.3-.2-2.6-.7-3.7-1.4Z"/>
      <path class="st0" d="M26.1,22.4c-.1,0-.3-.2-.4-.3l-.2-.2-.3-.3c0,.2-.1.4-.2.5-.8,2-2.9,3.5-5.2,3.5s-.3,0-.4,0c-.5,0-1-.1-1.5-.3-.4.3-.7.5-1.1.8.4.2.8.4,1.3.5.5.1,1.1.2,1.7.2s1.3,0,1.9-.3c2.1-.6,3.7-2.1,4.5-4.1,0,0,0,0,0,0Z"/>
      <path class="st0" d="M9.9,33.7c-.3-.2-.6-.5-.9-.7-.3.3-.5.5-.8.8.3.2.6.5.9.7,1.5,1.1,3.1,2,4.9,2.6.4.1.7.2,1.1.3.2-.3.4-.7.5-1-.4,0-.8-.2-1.1-.3-1.7-.6-3.3-1.4-4.7-2.4Z"/>
      <path class="st0" d="M30.6,23.2c-1.2,3.9-4.4,6.9-8.4,7.8-.4.4-.7.9-1,1.3,5.5-.6,9.9-4.7,10.8-10.1-.5.3-.9.6-1.4.9Z"/>
      <path class="st0" d="M2.9,19.1l-1.1-.2c0,.4,0,.8,0,1.1,0,4.7,1.8,9.1,4.8,12.3.3-.3.5-.6.8-.8-2.8-3-4.5-7-4.5-11.5s0-.6,0-.9Z"/>
      <path class="st0" d="M14.9,24.7c.3-.2.6-.5.9-.7-.6-.6-1.1-1.4-1.4-2.3l-1.2-.3c.3,1.3.9,2.4,1.7,3.3Z"/>
      <path class="st0" d="M3.2,16.9l4.4,1,1.1.2,4.4,1,1.1.2,2.3.5,1.4.3.7.2c.1.5.6.8,1.1.8s.2,0,.3,0c0,0,0,0,.1,0h0c.1,0,.2-.2.3-.2.1-.1.2-.3.3-.5h0c0-.1,0-.2,0-.3,0-.6-.4-1-1-1.1,0,0,0,0-.1,0-.3,0-.6.1-.8.3h-.4c0-.1-1.5-.6-1.5-.6l-1.5-.5-1-.3-1.1-.3-4.3-1.4-1.1-.3-4.3-1.3-1.1-.3-1.1-.3c-.3.8-.5,1.7-.7,2.6l1.1.2,1.1.2Z"/>
      <path class="st0" d="M37.7,18.6l-1.1.7c0,0,0,.2,0,.3,0,.1,0,.3,0,.4,0,9.3-7.6,16.9-16.9,16.9s-1.1,0-1.7,0c-.2.3-.4.7-.6,1.1.8,0,1.5.1,2.3.1,9.9,0,18-8.1,18-18s0-.6,0-1c0-.1,0-.3,0-.4Z"/>
      <path class="st0" d="M14.9,3.8c.4-.1.7-.2,1.1-.3,1.2-.3,2.5-.4,3.8-.4,6.5,0,12.2,3.7,15,9.2h.2c0,0,.1,0,.2,0l.7-.4c-3-5.9-9.1-9.9-16.1-9.9s-2.9.2-4.2.5c-.4,0-.7.2-1.1.3-.4.1-.7.2-1.1.4l.4,1c.3-.1.7-.3,1.1-.4Z"/>
      <path class="st0" d="M27.3,10.8c.2,0,.3-.2.5-.2-2.2-1.8-5-2.9-8-2.9s-1.4,0-2,.2c-.4,0-.8.1-1.1.2-.4,0-.7.2-1.1.3l.4,1c.4-.1.7-.2,1.1-.3.4,0,.7-.2,1.1-.2.5,0,1.1-.1,1.6-.1,2.6,0,5,.9,6.9,2.4l.6-.4Z"/>
      <path class="st0" d="M19.8,13.2c-.3,0-.6,0-1,0-.4,0-.8.1-1.1.3l.4,1c.4-.1.7-.2,1.1-.2.2,0,.3,0,.5,0,.2,0,.5,0,.7,0,1.5.2,2.9,1,3.8,2.2l.3-.2c.2-.1.5-.2.7-.2h0c-1.2-1.7-3.1-2.8-5.3-2.9h-.2Z"/>
      <path class="st0" d="M32.1,20.8s0,0,0,0h0Z"/>
      <path class="st0" d="M42.6,11.7s0,0,0,0c-.3-.4-.8-.7-1.8-.7-.9,0-1.8.3-2.6.8l-.8.5-1,.6-1,.6c0,0-.1,0-.2,0l-6.1-1.7-.7-.2s0,0,0,0c0,0-.2,0-.3,0,0,0-.2,0-.3,0l-.3.2-1.6,1c-.3.2-.3.6,0,.9,0,0,0,0,0,0l4.3,2.2h0s.4.2.4.2c.1,0,.1.2,0,.3h-.2c0,.1-2.3,1.6-2.3,1.6l-.2.2h0s-1.4-.6-1.4-.6l-.4-.2-.4-.2c0,0-.2,0-.2,0,0,0-.2,0-.2,0l-.3.2-.8.5c-.3.2-.3.6-.1.8h0s.8.8.8.8c-.4.2-.7.4-1.1.6-.2.1-.4.2-.6.3-.5.3-.9.5-1.4.8-.4.2-.8.5-1.1.7-.4.2-.7.5-1.1.7-.9.6-1.9,1.2-2.8,1.9-.3.2-.6.5-1,.7-1.2.9-2.4,1.9-3.5,2.9-.3.2-.6.5-.8.8-1.1,1-2.2,2.1-3.2,3.2-.3.3-.5.5-.8.8.3.3.6.5.8.7.3-.3.5-.6.8-.8,1-1.1,2.1-2.2,3.2-3.2.3-.3.6-.5.9-.8,1.2-1,2.4-2,3.7-3,.3-.3.7-.5,1.1-.8,1-.7,2-1.4,3-2,0,0,0,0,.1,0h0c0,0,.2-.1.3-.2,1.1-.7,2.2-1.3,3.3-1.9.2-.1.5-.3.7-.4h0c0,0,.2-.1.3-.2l.8.7h0c0,0,0,0,.1.1.2.1.4.2.6.2,0,0,0,0,0,0l1.9-.2h.2c-.6.4-1.2.8-1.7,1.3-3.2,2.5-6.1,5.4-8.5,8.6-.3.3-.5.7-.8,1.1-.9,1.3-1.8,2.7-2.6,4.1-.2.3-.4.7-.6,1,.4.1.8.2,1.1.3.2-.3.4-.7.6-1,.8-1.5,1.8-2.9,2.8-4.3.3-.4.6-.8.9-1.1,2.6-3.4,5.7-6.3,9.2-8.8.4-.3.8-.6,1.2-.8.4-.3.8-.5,1.2-.8l4.4-2.8,1-.7,1-.7,1.8-1.1s0,0,.1,0c.2-.1.4-.3.6-.5.4-.4.8-.8,1.1-1.4,0,0,0,0,0,0,.2-.5.4-.8.4-1.2,0-.3,0-.5-.1-.7Z"/>
      <path class="st0" d="M11.4,27.5c-1.7-1.9-2.8-4.4-2.9-7.2l-1.1-.3c0,3.2,1.2,6,3.2,8.2.3-.3.6-.5.8-.8Z"/>
    </g>
  </g>
</svg>